<?xml version="1.0" encoding="UTF-8"?>
<svg width="700pt" height="700pt" version="1.1" viewBox="0 0 700 700" xmlns="http://www.w3.org/2000/svg" xmlns:xlink="http://www.w3.org/1999/xlink">
 <g>
  <path fill="#ffffff" d="m366.8 156.8h50.398v50.398h-50.398z"/>
  <path fill="#ffffff" d="m417.2 207.2h50.398v50.398h-50.398z"/>
  <path fill="#ffffff" d="m467.6 257.6h50.398v50.398h-50.398z"/>
  <path fill="#ffffff" d="m165.2 257.6h50.398v50.398h-50.398z"/>
  <path fill="#ffffff" d="m215.6 207.2h50.398v50.398h-50.398z"/>
  <path fill="#ffffff" d="m266 156.8h50.398v50.398h-50.398z"/>
  <path fill="#ffffff" d="m316.4 106.4h50.398v50.398h-50.398z"/>
  <path fill="#ffffff" d="m366.8 309.86v98.938h50.398v-151.2h-50.398z"/>
  <path fill="#ffffff" d="m316.4 309.86v-52.262h-50.398v151.2h50.398z"/>
  <path fill="#ffffff" d="m316.4 408.8h50.398v50.398h-50.398z"/>
  <use x="70" y="644" xlink:href="#w"/>
  <use x="90.550781" y="644" xlink:href="#c"/>
  <use x="104.359375" y="644" xlink:href="#a"/>
  <use x="123.347656" y="644" xlink:href="#i"/>
  <use x="142.242188" y="644" xlink:href="#b"/>
  <use x="155.628906" y="644" xlink:href="#a"/>
  <use x="174.617188" y="644" xlink:href="#h"/>
  <use x="204.410156" y="644" xlink:href="#g"/>
  <use x="224.453125" y="644" xlink:href="#f"/>
  <use x="252.453125" y="644" xlink:href="#e"/>
  <use x="275.695312" y="644" xlink:href="#v"/>
  <use x="285.289062" y="644" xlink:href="#u"/>
  <use x="294.890625" y="644" xlink:href="#a"/>
  <use x="313.878906" y="644" xlink:href="#a"/>
  <use x="332.867188" y="644" xlink:href="#t"/>
  <use x="362.660156" y="644" xlink:href="#s"/>
  <use x="70" y="672" xlink:href="#r"/>
  <use x="82.183594" y="672" xlink:href="#c"/>
  <use x="95.992188" y="672" xlink:href="#d"/>
  <use x="115.226562" y="672" xlink:href="#q"/>
  <use x="154.152344" y="672" xlink:href="#b"/>
  <use x="167.535156" y="672" xlink:href="#p"/>
  <use x="187.46875" y="672" xlink:href="#a"/>
  <use x="216.207031" y="672" xlink:href="#o"/>
  <use x="239.640625" y="672" xlink:href="#d"/>
  <use x="258.878906" y="672" xlink:href="#n"/>
  <use x="278.8125" y="672" xlink:href="#m"/>
  <use x="308.492188" y="672" xlink:href="#l"/>
  <use x="329.015625" y="672" xlink:href="#c"/>
  <use x="342.820312" y="672" xlink:href="#d"/>
  <use x="362.058594" y="672" xlink:href="#k"/>
  <use x="371.65625" y="672" xlink:href="#a"/>
  <use x="390.648438" y="672" xlink:href="#j"/>
  <use x="407.242188" y="672" xlink:href="#b"/>
 </g>
</svg>
